<svg
  xmlns="http://www.w3.org/2000/svg"
  viewBox="0 0 1024 1024"
  width="200"
  height="200"
>
  <path
    d="M170.667 128a42.667 42.667 0 0 1 42.666-42.667h597.334A42.667 42.667 0 0 1 853.333 128v768a42.667 42.667 0 0 1-64.448 36.693L512 768.3 235.115 932.693A42.667 42.667 0 0 1 170.667 896V128zM256 170.667v650.368l234.219-139.051a42.667 42.667 0 0 1 43.562 0L768 821.034V170.668H256z"
    fill="#1296db"
  />
  <path
    d="M682.667 384H341.333v-85.333h341.334V384z"
    fill="#1296db"
  />
</svg>
